<?xml version="1.0" encoding="utf-8"?>
<!-- Generator: Adobe Illustrator 27.5.0, SVG Export Plug-In . SVG Version: 6.00 Build 0)  -->
<svg version="1.1" xmlns="http://www.w3.org/2000/svg" xmlns:xlink="http://www.w3.org/1999/xlink" x="0px" y="0px"
	 viewBox="0 0 3710 3710" style="enable-background:new 0 0 3710 3710;" xml:space="preserve">
<g id="Background">
	<g>
		<g>
			<rect style="fill:#FFFFFF;" width="3710" height="3710"/>
		</g>
	</g>
</g>
<g id="Illustration">
	<g>
		<linearGradient id="SVGID_1_" gradientUnits="userSpaceOnUse" x1="3616.4778" y1="3476.6655" x2="1481.8114" y2="1561.7424">
			<stop  offset="0" style="stop-color:#DAE3FE"/>
			<stop  offset="1" style="stop-color:#E9EFFD"/>
		</linearGradient>
		<path style="fill:url(#SVGID_1_);" d="M2905.127,2813.84c-71.85,74.061-136.139,117.596-185.361,150.463
			c-480.052,320.535-1028.805,228.149-1198.465,196.572c-273.727-50.947-504.79-86.887-703.314-266.246
			c-451.107-407.558-429.167-1257.754-84.465-1784.413c40.871-62.447,385.05-572.627,934.991-644.516
			c13.451-1.758,23.487-2.76,32.277-3.69c85.074-9.007,612.264-56.547,1042.135,303.599
			c61.534,51.553,160.56,144.542,252.389,286.364C3331.081,1570.54,3332.145,2373.687,2905.127,2813.84z"/>
		<g>
			<path style="fill:#91B3FA;" d="M1679.995,3125.741c0,0-241.95-280.167-432.353-875.801
				c-177.85-556.368,98.649-1382.642-508.517-1707.334c-20.449-10.936-44.152,7.808-38.208,30.223
				c35.141,132.526,113.537,476.631,88.382,829.216C757.191,1852.116,905.657,2949.71,1679.995,3125.741z"/>
			<path style="opacity:0.47;fill:#FFFFFF;" d="M851.673,764.704l2.266,2.016l1.801,1.724c1.204,1.141,2.335,2.269,3.416,3.385
				c2.238,2.237,4.351,4.499,6.457,6.763c4.195,4.542,8.271,9.127,12.2,13.81c4.014,4.63,7.755,9.426,11.597,14.169
				c3.65,4.861,7.462,9.623,10.976,14.574c14.333,19.626,27.47,40.027,39.592,60.986c24.309,41.894,44.062,86.256,60.061,131.811
				c15.846,45.623,27.978,92.471,36.464,139.92c8.5,47.459,12.983,95.539,14.431,143.597c1.408,48.074-0.409,96.153-4.797,143.927
				l-3.758,35.781l-4.955,35.614c-1.619,11.98-3.42,23.385-5.122,35.107c-1.767,11.643-3.478,23.294-4.823,34.998
				c-12.043,93.458-17.453,187.841-17.017,282.203l0.38,35.392l1.126,35.38c0.281,11.799,0.95,23.579,1.613,35.363
				c0.72,11.778,1.11,23.581,2.102,35.341c3.161,47.11,8.23,94.072,14.317,140.901c6.28,46.809,14.19,93.391,23.403,139.73
				c9.54,46.27,20.706,92.202,33.399,137.728c12.992,45.438,27.785,90.359,44.329,134.647
				c16.695,44.231,35.492,87.669,56.262,130.168c20.687,42.549,44.07,83.803,69.883,123.496
				c25.805,39.697,54.122,77.828,85.276,113.619c-32.043-34.992-61.371-72.467-88.255-111.629
				c-26.893-39.161-51.423-80.006-73.29-122.241c-21.917-42.198-42.083-85.37-59.648-129.611
				c-17.524-44.247-33.306-89.189-47.286-134.705c-13.681-45.6-25.838-91.663-36.365-138.115
				c-10.183-46.52-19.132-93.329-26.315-140.432c-6.837-47.142-12.648-94.458-16.54-141.961
				c-1.175-11.859-1.745-23.761-2.647-35.644c-0.845-11.885-1.694-23.774-2.155-35.682l-1.662-35.714l-0.911-35.743
				c-1.844-95.329,2.211-190.86,13.02-285.754c1.19-11.881,2.749-23.718,4.366-35.549l4.691-35.363l4.577-34.891l3.397-35.006
				c3.919-46.71,5.316-93.597,3.581-140.339c-3.536-93.426-19.447-186.392-49.931-274.446c-7.805-21.927-16.149-43.68-25.852-64.817
				c-9.539-21.2-19.786-42.097-31.296-62.265c-11.425-20.21-23.814-39.862-37.271-58.676c-6.732-9.399-13.723-18.601-20.999-27.482
				c-3.614-4.467-7.347-8.81-11.123-13.046c-1.896-2.11-3.794-4.216-5.717-6.203c-0.963-1.032-1.914-2.014-2.848-2.926l-1.384-1.379
				l-1.028-0.971l-0.937-0.885c-5.632-5.318-5.886-14.196-0.568-19.828C837.37,760.03,846.029,759.695,851.673,764.704z"/>
		</g>
		<g>
			<path style="fill:#BDD0FB;" d="M476.382,2239.28c-7.848-6.944-1.999-19.906,8.419-18.779
				c105.793,11.443,385.946,73.357,578.427,405.664c241.495,416.929,467.968,398.096,589.245,506.566
				c0,0-166.117,62.596-358.305-14.254C822.302,2929.789,615.916,2362.754,476.382,2239.28z"/>
			<path style="opacity:0.47;fill:#FFFFFF;" d="M616.582,2318.381c20.316,10.401,39.006,22.864,57.205,36.169l6.856,4.936
				l6.683,5.154l13.373,10.316c8.713,7.117,17.391,14.291,26.014,21.532c34.082,29.447,65.803,61.492,96.103,94.758
				c30.661,33.008,58.317,68.568,85.792,104.202l19.774,27.341l9.889,13.676l4.945,6.839l4.707,6.997l37.58,55.867
				c48.805,74.093,105.288,143.099,167.63,206.325c30.998,31.778,63.415,62.211,97.222,90.995
				c8.375,7.284,16.989,14.282,25.472,21.442c8.587,7.025,17.28,13.921,25.974,20.809c8.804,6.733,17.556,13.553,26.509,20.056
				c8.828,6.618,17.963,13.087,26.853,19.122l0.255,0.173c4.779,3.245,6.023,9.748,2.779,14.527
				c-3.199,4.713-9.578,5.982-14.337,2.905c-19.344-12.525-37.437-25.686-55.48-39.36c-8.922-6.904-17.84-13.816-26.649-20.857
				c-8.7-7.17-17.534-14.188-26.125-21.489c-34.463-29.096-67.354-60.011-98.906-92.225c-15.995-15.901-31.075-32.686-46.245-49.37
				c-7.498-8.423-14.657-17.146-22-25.705l-10.948-12.895c-3.665-4.285-7.029-8.824-10.557-13.223l-20.931-26.589
				c-6.89-8.929-13.317-18.216-19.995-27.306l-9.926-13.706c-1.634-2.299-3.353-4.537-4.918-6.884l-4.666-7.063l-18.656-28.249
				c-6.3-9.445-12.231-18.763-18.274-28.122l-18.081-28.066l-4.521-7.018l-4.755-6.854l-9.511-13.711l-19.027-27.433l-19.931-26.764
				c-6.687-8.89-13.168-17.949-20.257-26.519l-20.866-26.042c-3.417-4.396-7.044-8.607-10.652-12.838l-10.809-12.708
				c-28.927-33.782-59.317-66.416-92.077-96.527c-8.213-7.49-16.489-14.922-24.81-22.309l-12.779-10.719l-6.393-5.364l-6.56-5.142
				c-4.396-3.398-8.715-6.916-13.179-10.223l-13.468-9.824c-9.11-6.268-18.326-12.723-27.842-18.025l-0.125-0.069
				c-1.353-0.754-1.838-2.461-1.085-3.814C613.591,2318.189,615.245,2317.698,616.582,2318.381z"/>
		</g>
		<g>
			<path style="fill:#91B3FA;" d="M1502.419,3123.122c0,0,430.464-145.559,608.758-671.979
				c173.297-511.668,263.471-1249.441,934.423-1348.766c21.216-3.141,36.821,19.073,25.391,37.22
				c-67.582,107.295-231.716,389.432-306.778,707.622C2668.395,2253.385,2234.539,3181.346,1502.419,3123.122z"/>
			<path style="opacity:0.47;fill:#FFFFFF;" d="M2894.931,1291.395l-1.175,0.573l-1.603,0.836c-1.076,0.548-2.187,1.153-3.322,1.797
				c-2.247,1.223-4.502,2.559-6.758,3.899c-4.501,2.697-8.995,5.501-13.417,8.448c-8.874,5.833-17.584,12.027-26.12,18.467
				c-17.069,12.896-33.428,26.827-49.088,41.515c-15.725,14.628-30.535,30.248-44.804,46.331
				c-14.396,15.983-27.763,32.883-40.702,50.087c-51.202,69.321-90.893,146.998-119.789,228.497
				c-14.427,40.783-26.128,82.56-35.555,124.873l-6.658,31.839l-5.585,32.064l-5.615,32.51c-1.836,10.891-3.726,21.771-5.953,32.586
				c-16.637,86.752-39.411,172.202-67.338,255.845l-10.665,31.304l-11.32,31.067c-3.692,10.385-7.721,20.645-11.746,30.904
				c-4.074,10.24-7.862,20.59-12.17,30.736c-16.54,40.86-34.723,81.025-53.764,120.755c-19.335,39.599-40.148,78.452-61.971,116.71
				c-22.109,38.102-45.548,75.409-70.204,111.891c-24.898,36.322-51.229,71.643-78.904,105.866
				c-27.71,34.209-57.422,66.759-88.411,97.963c-30.954,31.25-63.877,60.538-98.42,87.69
				c-34.536,27.154-70.764,52.145-108.704,74.194c37.375-22.999,72.891-48.849,106.622-76.771
				c33.737-27.92,65.759-57.887,95.759-89.741c30.06-31.786,58.635-64.946,85.576-99.388
				c26.823-34.531,52.274-70.104,76.278-106.632c23.764-36.687,46.292-74.153,67.478-112.368
				c20.917-38.364,40.75-77.303,59.207-116.891c18.292-39.659,35.722-79.719,51.509-120.434c4.12-10.106,7.719-20.42,11.604-30.618
				c3.836-10.218,7.677-20.433,11.18-30.772l10.754-30.921l10.099-31.138c26.417-83.181,47.679-167.992,62.83-253.816
				c2.041-10.702,3.746-21.459,5.397-32.224c1.731-10.818,3.287-21.382,5.163-32.405l5.451-32.805l6.553-32.623
				c9.305-43.386,20.966-86.33,35.471-128.38c14.535-42.024,31.757-83.229,52.353-122.778c20.581-39.548,44.216-77.556,70.79-113.46
				c26.691-35.8,56.366-69.512,89.383-99.788c16.483-15.158,33.708-29.542,51.775-42.914c4.468-3.401,9.146-6.554,13.71-9.838
				c4.7-3.126,9.325-6.328,14.146-9.307c4.76-3.05,9.624-5.973,14.58-8.826c2.484-1.417,4.973-2.831,7.566-4.188
				c1.262-0.687,2.572-1.37,3.95-2.045l2.064-1.025l2.557-1.155c6.53-2.948,14.213-0.044,17.161,6.486
				c2.892,6.405,0.153,13.921-6.116,16.987L2894.931,1291.395z"/>
		</g>
		<g>
			<path style="fill:#BDD0FB;" d="M3030.854,2153.941c9.958-7.706,3.971-23.711-8.61-23.183
				c-127.758,5.356-468.573,57.443-725.643,440.681c-322.533,480.829-550.195,561.353-746.593,560.813
				c0,0,194.235,88.191,430.756,11.238C2561.479,2954.552,2853.781,2290.961,3030.854,2153.941z"/>
			<path style="opacity:0.47;fill:#FFFFFF;" d="M2859.112,2243.916c-11.829,5.603-23.39,12.614-34.809,19.409l-16.925,10.717
				c-5.614,3.61-11.071,7.486-16.611,11.214l-8.273,5.647l-8.089,5.926l-16.17,11.843c-10.561,8.199-21.073,16.457-31.512,24.789
				c-41.662,33.514-80.682,70.242-118.038,108.461l-13.966,14.384c-4.661,4.788-9.343,9.55-13.788,14.551l-27.079,29.577
				c-9.177,9.715-17.665,20.067-26.386,30.197l-26.015,30.516l-24.983,31.389l-12.489,15.689l-6.243,7.843l-5.977,8.057
				l-23.9,32.222c-7.986,10.744-15.834,21.448-24.135,32.275l-24.604,32.397l-6.153,8.1c-2.062,2.691-4.299,5.24-6.441,7.866
				l-12.986,15.648c-8.726,10.371-17.166,21-26.134,31.162l-27.2,30.227c-4.579,4.995-8.971,10.169-13.704,15.019l-14.146,14.597
				c-9.481,9.681-18.756,19.575-28.412,29.082c-19.509,18.808-38.918,37.741-59.355,55.542
				c-40.38,36.132-82.262,70.6-125.886,102.762c-10.879,8.075-22.026,15.792-33.025,23.702c-11.12,7.747-22.359,15.329-33.603,22.9
				c-22.716,14.971-45.451,29.32-69.636,42.81c-6.062,3.38-13.717,1.208-17.098-4.855c-3.334-5.978-1.267-13.504,4.604-16.953
				l0.332-0.195c11.137-6.534,22.602-13.568,33.71-20.806c11.248-7.089,22.283-14.573,33.371-21.954
				c10.969-7.571,21.938-15.151,32.79-22.896c10.739-7.912,21.619-15.624,32.239-23.697c42.813-31.839,84.088-65.769,123.77-101.421
				c79.751-70.881,152.934-149.159,217.312-234.141l49.478-64.016l6.198-8.018l6.47-7.809l12.939-15.616l25.872-31.22
				c35.762-40.556,71.734-81.007,111.108-118.16c38.962-37.493,79.531-73.409,122.725-106.023
				c10.912-8.002,21.885-15.918,32.896-23.76l16.851-11.313l8.421-5.653l8.612-5.376c22.873-14.513,46.268-27.981,71.451-38.847
				c1.708-0.738,3.691,0.05,4.428,1.759c0.721,1.67-0.016,3.603-1.645,4.376L2859.112,2243.916z"/>
		</g>
		<g>
			
				<linearGradient id="SVGID_00000181059947584958027360000012131006359957044358_" gradientUnits="userSpaceOnUse" x1="1475.6449" y1="2775.0569" x2="1798.2264" y2="3299.8716">
				<stop  offset="0" style="stop-color:#4F52FF"/>
				<stop  offset="1" style="stop-color:#4042E2"/>
			</linearGradient>
			<path style="fill:url(#SVGID_00000181059947584958027360000012131006359957044358_);" d="M1830.846,3058.822
				c-1.015,69.697-90.474,143.969-193.834,143.969c-103.36,0-181.509-54.473-187.15-123.948
				c-13.456-165.719,83.79-163.99,187.15-163.99C1740.372,2914.852,1833.355,2886.566,1830.846,3058.822z"/>
			
				<linearGradient id="SVGID_00000118392209252620955290000005208765807436582025_" gradientUnits="userSpaceOnUse" x1="1522.7664" y1="2778.2563" x2="1823.0173" y2="3266.7407">
				<stop  offset="0" style="stop-color:#4F52FF"/>
				<stop  offset="1" style="stop-color:#4042E2"/>
			</linearGradient>
			<path style="fill:url(#SVGID_00000118392209252620955290000005208765807436582025_);" d="M1906.819,2957.091
				c3.04,37.704-111.432,77.696-255.682,89.327c-144.249,11.63-263.65-9.506-266.69-47.209
				c-3.04-37.703,111.433-77.696,255.682-89.327C1784.378,2898.252,1903.779,2919.388,1906.819,2957.091z"/>
			
				<linearGradient id="SVGID_00000090978423853339021100000002141792117085601981_" gradientUnits="userSpaceOnUse" x1="1552.3384" y1="2760.0796" x2="1852.5892" y2="3248.564">
				<stop  offset="0" style="stop-color:#4F52FF"/>
				<stop  offset="1" style="stop-color:#4042E2"/>
			</linearGradient>
			<path style="fill:url(#SVGID_00000090978423853339021100000002141792117085601981_);" d="M1906.819,2890.803
				c3.04,37.703-111.432,77.696-255.682,89.327c-144.249,11.631-263.65-9.506-266.69-47.209
				c-3.04-37.703,111.433-77.696,255.682-89.327C1784.378,2831.964,1903.779,2853.1,1906.819,2890.803z"/>
			
				<linearGradient id="SVGID_00000170242326556290540080000007122864737554102453_" gradientUnits="userSpaceOnUse" x1="1581.9103" y1="2741.9031" x2="1882.1614" y2="3230.3877">
				<stop  offset="0" style="stop-color:#4F52FF"/>
				<stop  offset="1" style="stop-color:#4042E2"/>
			</linearGradient>
			<path style="fill:url(#SVGID_00000170242326556290540080000007122864737554102453_);" d="M1906.819,2824.516
				c3.04,37.703-111.432,77.697-255.682,89.327c-144.249,11.63-263.65-9.506-266.69-47.209
				c-3.04-37.703,111.433-77.696,255.682-89.327C1784.378,2765.676,1903.779,2786.812,1906.819,2824.516z"/>
			
				<linearGradient id="SVGID_00000019640365564798079100000000206808321325511096_" gradientUnits="userSpaceOnUse" x1="1611.4823" y1="2723.7263" x2="1911.7332" y2="3212.2107">
				<stop  offset="0" style="stop-color:#4F52FF"/>
				<stop  offset="1" style="stop-color:#4042E2"/>
			</linearGradient>
			<path style="fill:url(#SVGID_00000019640365564798079100000000206808321325511096_);" d="M1906.819,2758.228
				c3.04,37.703-111.432,77.697-255.682,89.327c-144.249,11.631-263.65-9.506-266.69-47.209
				c-3.04-37.703,111.433-77.697,255.682-89.327C1784.378,2699.388,1903.779,2720.524,1906.819,2758.228z"/>
			<g>
				<path style="fill:#91B3FA;" d="M1573.382,3053.107c-42.84,0-82.04-3.152-114.428-9.355c-1.879-0.359-3.111-2.174-2.75-4.053
					c0.359-1.878,2.165-3.111,4.053-2.75c50.679,9.703,118.369,11.841,190.601,6.017c59.105-4.767,114.38-14.299,159.849-27.57
					c1.84-0.536,3.76,0.518,4.296,2.355c0.536,1.837-0.518,3.76-2.355,4.296c-45.914,13.399-101.668,23.021-161.233,27.824
					C1624.585,3052.034,1598.365,3053.107,1573.382,3053.107z"/>
				<path style="fill:#91B3FA;" d="M1574.101,2986.758c-55.661,0-105.403-5.235-140.489-15.226c-1.84-0.524-2.906-2.441-2.383-4.281
					c0.526-1.841,2.434-2.905,4.281-2.384c49.996,14.237,130.498,18.65,215.348,11.811c83.931-6.768,162.207-23.799,209.39-45.56
					c1.739-0.799,3.796-0.042,4.598,1.695c0.8,1.737,0.042,3.796-1.695,4.598c-47.883,22.083-127.037,39.344-211.734,46.173
					C1624.984,2985.715,1598.95,2986.758,1574.101,2986.758z"/>
				<path style="fill:#91B3FA;" d="M1573.389,2920.52c-60.098,0-112.69-6.149-148.087-17.821c-1.819-0.599-2.805-2.558-2.206-4.374
					c0.599-1.819,2.551-2.807,4.375-2.206c49.26,16.243,132.77,21.575,223.388,14.272c83.926-6.767,162.202-23.799,209.39-45.562
					c1.739-0.797,3.796-0.041,4.598,1.695c0.8,1.737,0.042,3.796-1.695,4.597c-47.888,22.084-127.042,39.347-211.734,46.174
					C1624.577,2919.461,1598.334,2920.52,1573.389,2920.52z"/>
				<path style="fill:#91B3FA;" d="M1573.852,2854.2c-47.673,0-91.032-3.853-124.741-11.344c-1.867-0.415-3.046-2.265-2.63-4.133
					c0.414-1.869,2.272-3.048,4.132-2.63c50.689,11.263,123.677,14.181,200.245,8.008c83.178-6.708,161.055-23.554,208.321-45.07
					c1.739-0.797,3.795-0.024,4.588,1.719c0.794,1.741,0.024,3.794-1.719,4.588c-47.956,21.83-126.697,38.902-210.631,45.669
					C1624.895,2853.146,1598.781,2854.2,1573.852,2854.2z"/>
			</g>
			
				<linearGradient id="SVGID_00000000928764061955921950000011933367671045695658_" gradientUnits="userSpaceOnUse" x1="1666.0007" y1="3048.8848" x2="1646.0402" y2="1516.948">
				<stop  offset="0" style="stop-color:#FE7062"/>
				<stop  offset="1" style="stop-color:#FF928E"/>
			</linearGradient>
			<path style="fill:url(#SVGID_00000000928764061955921950000011933367671045695658_);" d="M1287.629,2489.906
				c-17.52-62.053-47.278-120.044-87.355-170.555c-85.874-108.228-225.966-328.33-243.209-628.73
				c-25.082-436.947,362.439-655.706,716.058-626.008c353.619,29.698,702.552,292.994,664.353,699.487
				c-23.504,250.116-163.497,439.832-267.729,548.785c-66.188,69.185-113.4,153.925-138.957,246.198
				c-31.281,112.938-105.722,253.682-282.66,262.262C1419.178,2832.446,1324.088,2619.037,1287.629,2489.906z"/>
			<path style="opacity:0.78;fill:#FFFFFF;" d="M1706.615,2738.675l123.731-619.413c2.556-12.796,10.738-21.39,18.276-19.195
				c7.537,2.196,11.574,14.35,9.018,27.146c-0.068,0.341-0.159,0.762-0.235,1.097l-140.94,613.658
				c-1.06,4.615-4.105,7.529-6.801,6.509C1707.049,2747.489,1705.727,2743.143,1706.615,2738.675z"/>
			<path style="opacity:0.78;fill:#FFFFFF;" d="M1578.177,2743.593l-123.731-619.413c-2.556-12.797-10.739-21.39-18.276-19.195
				c-7.537,2.196-11.575,14.35-9.018,27.146c0.068,0.341,0.159,0.762,0.235,1.097l140.939,613.657
				c1.06,4.615,4.105,7.529,6.801,6.509C1577.743,2752.407,1579.065,2748.062,1578.177,2743.593z"/>
			<path style="opacity:0.78;fill:#FFFFFF;" d="M1829.458,2066.08c-3.142-3.889-10.414-5.343-16.243-3.246l-68.896,24.777
				l-23.914-52.447c-1.266-2.737-4.197-5.162-8.379-6.489c-7.925-2.514-17.403-0.266-21.171,5.022l-0.121,0.17l-56.66,79.516
				l-52.577-113.193l-0.087-0.187c-1.287-2.763-4.001-5.245-7.959-6.907c-8.817-3.704-20.463-1.938-26.015,3.944l-79.211,83.93
				c-3.222,3.44-2.113,8.049,2.792,10.592c5.234,2.714,12.776,2.083,16.844-1.409l69.744-59.88l62.793,107.679l0.048,0.083
				c1.007,1.723,2.901,3.226,5.531,4.174c5.892,2.124,13.249,0.658,16.433-3.273l60.598-74.845l22.807,37.856l0.201,0.336
				c0.165,0.272,0.354,0.54,0.567,0.804c3.139,3.886,10.405,5.338,16.229,3.243l81.78-29.411
				C1830.421,2074.821,1832.599,2069.969,1829.458,2066.08z"/>
			<path style="fill:#FFFFFF;" d="M1391.121,1175.62c-4.455,11.303-1.692,22.266,9.777,32.819c2.353,2.165,5.669,2.981,8.774,2.222
				c160.097-39.129,321.789-35.68,479.156,16.323c3.841,1.269,8.042-0.013,10.58-3.162c12.672-15.72,10.673-32.171-2.808-49.193
				c-1.194-1.508-2.868-2.599-4.708-3.161c-158.038-48.319-316.062-51.677-474.078-17.781
				C1405.909,1156.241,1395.585,1164.292,1391.121,1175.62z"/>
			
				<linearGradient id="SVGID_00000052787962665328917980000009908477752336867497_" gradientUnits="userSpaceOnUse" x1="1760.8962" y1="461.0465" x2="1614.5138" y2="1419.1808">
				<stop  offset="0" style="stop-color:#E1473D"/>
				<stop  offset="1" style="stop-color:#E9605A"/>
			</linearGradient>
			<path style="fill:url(#SVGID_00000052787962665328917980000009908477752336867497_);" d="M1399.926,1177.683
				c-4.309,10.181-1.636,20.056,9.457,29.561c2.276,1.95,5.483,2.685,8.487,2.002c154.856-35.244,311.255-32.137,463.472,14.703
				c3.715,1.143,7.779-0.012,10.234-2.849c12.258-14.159,10.323-28.977-2.716-44.309c-1.155-1.358-2.774-2.34-4.554-2.847
				c-152.865-43.521-305.716-46.547-458.56-16.016C1414.23,1160.227,1404.245,1167.479,1399.926,1177.683z"/>
		</g>
		<g>
			<g>
				
					<linearGradient id="SVGID_00000036228317235121320800000006153513116429016460_" gradientUnits="userSpaceOnUse" x1="2788.9636" y1="1778.6827" x2="3547.4497" y2="910.4166">
					<stop  offset="0" style="stop-color:#4F52FF"/>
					<stop  offset="1" style="stop-color:#4042E2"/>
				</linearGradient>
				<path style="fill:url(#SVGID_00000036228317235121320800000006153513116429016460_);" d="M2054.327,3200.674
					c5.281,0,9.562-4.281,9.562-9.562V2048.184c0-5.281-4.281-9.562-9.562-9.562c-5.282,0-9.562,4.28-9.562,9.562v1142.928
					C2044.765,3196.393,2049.045,3200.674,2054.327,3200.674z"/>
				
					<linearGradient id="SVGID_00000149340342015519881700000012003515864268778642_" gradientUnits="userSpaceOnUse" x1="2935.9299" y1="1907.0707" x2="3694.416" y2="1038.8047">
					<stop  offset="0" style="stop-color:#4F52FF"/>
					<stop  offset="1" style="stop-color:#4042E2"/>
				</linearGradient>
				<path style="fill:url(#SVGID_00000149340342015519881700000012003515864268778642_);" d="M2313.448,3200.674
					c5.281,0,9.562-4.281,9.562-9.562V2048.184c0-5.281-4.281-9.562-9.562-9.562c-5.281,0-9.562,4.28-9.562,9.562v1142.928
					C2303.886,3196.393,2308.167,3200.674,2313.448,3200.674z"/>
				
					<linearGradient id="SVGID_00000107577447975196387230000004417961663647520645_" gradientUnits="userSpaceOnUse" x1="3160.1377" y1="2102.9324" x2="3918.6199" y2="1234.671">
					<stop  offset="0" style="stop-color:#4F52FF"/>
					<stop  offset="1" style="stop-color:#4042E2"/>
				</linearGradient>
				<path style="fill:url(#SVGID_00000107577447975196387230000004417961663647520645_);" d="M2950.076,3207.923
					c1.249,0,2.515-0.247,3.737-0.765c4.86-2.065,7.125-7.68,5.059-12.542l-488.968-1150.174c-2.065-4.859-7.688-7.119-12.54-5.058
					c-4.859,2.066-7.125,7.68-5.059,12.542l488.967,1150.175C2942.819,3205.738,2946.358,3207.923,2950.076,3207.923z"/>
				
					<linearGradient id="SVGID_00000063617375709532860330000010332716779631799959_" gradientUnits="userSpaceOnUse" x1="2988.833" y1="1953.2865" x2="3747.3145" y2="1085.0256">
					<stop  offset="0" style="stop-color:#4F52FF"/>
					<stop  offset="1" style="stop-color:#4042E2"/>
				</linearGradient>
				<path style="fill:url(#SVGID_00000063617375709532860330000010332716779631799959_);" d="M2648.046,3207.923
					c1.249,0,2.515-0.247,3.737-0.765c4.859-2.065,7.125-7.68,5.059-12.542l-488.967-1150.174
					c-2.067-4.859-7.687-7.119-12.541-5.058c-4.859,2.066-7.125,7.68-5.059,12.542l488.967,1150.175
					C2640.789,3205.738,2644.328,3207.923,2648.046,3207.923z"/>
				
					<linearGradient id="SVGID_00000096758025072833802500000017447331209765307535_" gradientUnits="userSpaceOnUse" x1="2622.9578" y1="1633.6664" x2="3381.4414" y2="765.4031">
					<stop  offset="0" style="stop-color:#4F52FF"/>
					<stop  offset="1" style="stop-color:#4042E2"/>
				</linearGradient>
				<path style="fill:url(#SVGID_00000096758025072833802500000017447331209765307535_);" d="M2039.481,2058.702h447.906
					c7.443,0,13.477-6.033,13.477-13.477l0,0c0-7.443-6.034-13.477-13.477-13.477h-447.906c-7.443,0-13.477,6.034-13.477,13.477l0,0
					C2026.005,2052.668,2032.038,2058.702,2039.481,2058.702z"/>
				
					<linearGradient id="SVGID_00000124138561361413429920000002496936144432628138_" gradientUnits="userSpaceOnUse" x1="2780.1748" y1="1771.0051" x2="3538.6592" y2="902.7411">
					<stop  offset="0" style="stop-color:#4F52FF"/>
					<stop  offset="1" style="stop-color:#4042E2"/>
				</linearGradient>
				<path style="fill:url(#SVGID_00000124138561361413429920000002496936144432628138_);" d="M2232.946,2233.616h302.925
					c5.281,0,9.562-4.281,9.562-9.562s-4.28-9.562-9.562-9.562h-302.925c-5.281,0-9.562,4.281-9.562,9.562
					S2227.664,2233.616,2232.946,2233.616z"/>
				
					<linearGradient id="SVGID_00000081613666211508688550000012137934657014984349_" gradientUnits="userSpaceOnUse" x1="2940.6702" y1="1911.2083" x2="3699.155" y2="1042.9437">
					<stop  offset="0" style="stop-color:#4F52FF"/>
					<stop  offset="1" style="stop-color:#4042E2"/>
				</linearGradient>
				
					<rect x="2325.893" y="2432.02" style="fill:url(#SVGID_00000081613666211508688550000012137934657014984349_);" width="302.925" height="19.123"/>
				
					<linearGradient id="SVGID_00000024682355021872840230000012398450174432400561_" gradientUnits="userSpaceOnUse" x1="3099.4832" y1="2049.9424" x2="3857.9678" y2="1181.6783">
					<stop  offset="0" style="stop-color:#4F52FF"/>
					<stop  offset="1" style="stop-color:#4042E2"/>
				</linearGradient>
				
					<rect x="2415.875" y="2649.547" style="fill:url(#SVGID_00000024682355021872840230000012398450174432400561_);" width="302.925" height="19.123"/>
				
					<linearGradient id="SVGID_00000019657924966555260040000013511095692942407315_" gradientUnits="userSpaceOnUse" x1="3260.7815" y1="2190.8472" x2="4019.2656" y2="1322.5835">
					<stop  offset="0" style="stop-color:#4F52FF"/>
					<stop  offset="1" style="stop-color:#4042E2"/>
				</linearGradient>
				<path style="fill:url(#SVGID_00000019657924966555260040000013511095692942407315_);" d="M2510.238,2886.198h302.925
					c5.281,0,9.562-4.281,9.562-9.562c0-5.281-4.281-9.562-9.562-9.562h-302.925c-5.281,0-9.562,4.281-9.562,9.562
					C2500.676,2881.918,2504.957,2886.198,2510.238,2886.198z"/>
				
					<linearGradient id="SVGID_00000018224526078821038560000002923148378449778564_" gradientUnits="userSpaceOnUse" x1="3420.3059" y1="2330.2007" x2="4178.7905" y2="1461.9363">
					<stop  offset="0" style="stop-color:#4F52FF"/>
					<stop  offset="1" style="stop-color:#4042E2"/>
				</linearGradient>
				<path style="fill:url(#SVGID_00000018224526078821038560000002923148378449778564_);" d="M2601.47,3103.729h302.924
					c5.281,0,9.562-4.281,9.562-9.561c0-5.281-4.281-9.562-9.562-9.562H2601.47c-5.282,0-9.562,4.281-9.562,9.562
					C2591.908,3099.448,2596.188,3103.729,2601.47,3103.729z"/>
			</g>
			<g>
				
					<linearGradient id="SVGID_00000065061830741680181760000014508199945331068556_" gradientUnits="userSpaceOnUse" x1="994.3751" y1="2003.8925" x2="1083.3206" y2="2003.8925" gradientTransform="matrix(-1 0 0 1 3396.0823 0)">
					<stop  offset="0" style="stop-color:#09005D"/>
					<stop  offset="1" style="stop-color:#1A0F91"/>
				</linearGradient>
				<path style="fill:url(#SVGID_00000065061830741680181760000014508199945331068556_);" d="M2389.325,1972.55
					c0,0,9.884,15.58,12.37,59.198c0.231,4.064-2.988,7.527-7.058,7.527h-77.3c-3.11,0-5.33-3.05-4.334-5.996
					c4.529-13.406,18.226-46.093,48.785-64.77L2389.325,1972.55z"/>
				
					<linearGradient id="SVGID_00000163057663242892904420000000364869847969984172_" gradientUnits="userSpaceOnUse" x1="1003.3977" y1="1962.5604" x2="1039.4709" y2="1962.5604" gradientTransform="matrix(-1 0 0 1 3396.0823 0)">
					<stop  offset="0" style="stop-color:#FEBBBA"/>
					<stop  offset="1" style="stop-color:#FF928E"/>
				</linearGradient>
				<path style="fill:url(#SVGID_00000163057663242892904420000000364869847969984172_);" d="M2392.685,1942.994l-4.372,36.661
					c-0.377,3.163-2.856,5.694-6.021,6.059c-4.227,0.487-10.373,0.83-16.345-0.155c-5.429-0.895-9.336-5.731-9.336-11.233v-35.396
					L2392.685,1942.994z"/>
				
					<linearGradient id="SVGID_00000119113770037371859330000017859731341965456056_" gradientUnits="userSpaceOnUse" x1="1183.5278" y1="2002.4703" x2="1323.0865" y2="2002.4703" gradientTransform="matrix(-1 0 0 1 3396.0823 0)">
					<stop  offset="0" style="stop-color:#09005D"/>
					<stop  offset="1" style="stop-color:#1A0F91"/>
				</linearGradient>
				<path style="fill:url(#SVGID_00000119113770037371859330000017859731341965456056_);" d="M2198.071,1968.509
					c0,0,14.796,22.997,14.479,54.564c-0.075,7.435-6.3,13.358-13.735,13.358h-120.056c-5.621,0-7.904-7.224-3.303-10.454
					c22.718-15.953,67.37-45.755,99.665-57.468H2198.071z"/>
				
					<linearGradient id="SVGID_00000019646791371040736560000012147491176127733639_" gradientUnits="userSpaceOnUse" x1="1185.6481" y1="1946.5426" x2="1221.5223" y2="1946.5426" gradientTransform="matrix(-1 0 0 1 3396.0823 0)">
					<stop  offset="0" style="stop-color:#FEBBBA"/>
					<stop  offset="1" style="stop-color:#FF928E"/>
				</linearGradient>
				<path style="fill:url(#SVGID_00000019646791371040736560000012147491176127733639_);" d="M2210.434,1928.917l-9.325,45.276
					c-1.043,5.064-5.997,8.469-11.044,7.343c-3.068-0.685-6.687-1.997-10.554-4.414c-3.676-2.298-5.538-6.67-4.787-10.939
					l9.646-54.852L2210.434,1928.917z"/>
				
					<linearGradient id="SVGID_00000160886399701769212250000013414074070003612590_" gradientUnits="userSpaceOnUse" x1="980.9838" y1="1628.3263" x2="1225.5521" y2="1628.3263" gradientTransform="matrix(-1 0 0 1 3396.0823 0)">
					<stop  offset="0" style="stop-color:#09005D"/>
					<stop  offset="1" style="stop-color:#1A0F91"/>
				</linearGradient>
				<path style="fill:url(#SVGID_00000160886399701769212250000013414074070003612590_);" d="M2375.555,1299.415
					c0,0,32.426,28.587,38.528,62.981c6.102,34.394-17.29,593.406-17.29,593.406s-32.424,5.395-49.138-4.734
					c0,0-19.824-362.795-34.893-446.628c0,0-79.025,375.807-100.92,443.711c0,0-31.238,3.8-41.311-2.143
					c0,0,20.7-487.152,46.711-573.76L2375.555,1299.415z"/>
				
					<linearGradient id="SVGID_00000163760089023926364820000001124168065227746704_" gradientUnits="userSpaceOnUse" x1="2397.022" y1="1205.4542" x2="2192.4312" y2="2028.808">
					<stop  offset="0" style="stop-color:#4F52FF"/>
					<stop  offset="1" style="stop-color:#4042E2"/>
				</linearGradient>
				<path style="fill:url(#SVGID_00000163760089023926364820000001124168065227746704_);" d="M2313.706,1492.326
					c-0.266,0-0.539-0.033-0.807-0.104c-1.709-0.446-2.733-2.192-2.288-3.899l13.773-52.833c0.202-0.779,0.691-1.451,1.368-1.886
					l29.757-19.09c1.478-0.955,3.462-0.524,4.418,0.966c0.953,1.486,0.52,3.464-0.966,4.417l-28.704,18.415l-13.459,51.622
					C2316.422,1491.373,2315.125,1492.326,2313.706,1492.326z"/>
				
					<linearGradient id="SVGID_00000131332113146101306520000010985547308018151054_" gradientUnits="userSpaceOnUse" x1="1872.9993" y1="519.2006" x2="1981.2157" y2="774.2822">
					<stop  offset="0" style="stop-color:#4F52FF"/>
					<stop  offset="1" style="stop-color:#4042E2"/>
				</linearGradient>
				<path style="fill:url(#SVGID_00000131332113146101306520000010985547308018151054_);" d="M2055.572,976.408
					c136.5-11.332,172.176,16.915,172.176,16.915l-65.596,103.559c0,0-134.124-2.65-230.23-76.723
					c17.986-19.371,30.478-40.778,38.489-57.446C1995.193,973.012,2023.732,979.05,2055.572,976.408z"/>
				
					<linearGradient id="SVGID_00000173850969588329490580000013708869712047412614_" gradientUnits="userSpaceOnUse" x1="1425.6715" y1="896.0956" x2="1558.9984" y2="896.0956" gradientTransform="matrix(-1 0 0 1 3396.0823 0)">
					<stop  offset="0" style="stop-color:#FEBBBA"/>
					<stop  offset="1" style="stop-color:#FF928E"/>
				</linearGradient>
				<path style="fill:url(#SVGID_00000173850969588329490580000013708869712047412614_);" d="M1841.816,776.045
					c0.184-4.374,6.112-5.564,7.97-1.6l17.418,37.167c3.365,7.182,4.444,15.223,3.091,23.037l-6.11,21.633
					c-1.828,10.55,0.928,21.359,7.616,29.72c16.004,20.008,50.088,56.549,98.611,76.712c-8.011,16.668-20.503,38.075-38.489,57.446
					c-35.262-27.178-65.415-63.961-81.935-113.773c-7.915-2.431-13.204-9.883-12.889-18.157L1841.816,776.045z"/>
				
					<linearGradient id="SVGID_00000100377603824696369710000012793738124601172395_" gradientUnits="userSpaceOnUse" x1="1303.0059" y1="860.2658" x2="1230.0233" y2="1551.4573" gradientTransform="matrix(-1 0 0 1 3396.0823 0)">
					<stop  offset="0" style="stop-color:#4F52FF"/>
					<stop  offset="1" style="stop-color:#4042E2"/>
				</linearGradient>
				<path style="fill:url(#SVGID_00000100377603824696369710000012793738124601172395_);" d="M2010.641,1036.448
					c48.053-51.779,139.584-75.173,192.577-84.782c23.216-4.21,46.102,8.709,54.328,30.823
					c23.848,64.107,88.708,230.891,101.28,259.556c10.314,23.516,21.083,46.484,27.926,60.844
					c4.088,8.578,0.516,18.844-8.044,22.969c-44.586,21.49-124.813,45.805-157.338,55.29c-7.154,2.087-14.278-3.285-14.278-10.737
					c0-6.32-1.718-12.523-4.97-17.941l-123.18-205.27c-76.777,85.129-144.013,92.914-195.664,74.281
					c8.685-26.841,14.368-53.731,17.094-80.672C1976.676,1127.736,2010.641,1036.448,2010.641,1036.448z"/>
				
					<linearGradient id="SVGID_00000124873771911270372060000016020964190567549104_" gradientUnits="userSpaceOnUse" x1="1403.4728" y1="708.5635" x2="1124.464" y2="1221.2148" gradientTransform="matrix(-1 0 0 1 3396.0823 0)">
					<stop  offset="0" style="stop-color:#FEBBBA"/>
					<stop  offset="1" style="stop-color:#FF928E"/>
				</linearGradient>
				<path style="fill:url(#SVGID_00000124873771911270372060000016020964190567549104_);" d="M2130.327,856.57l40.933,99.885
					c0,0-47.032,32.554-84.871,29.456l-20.429-89.815L2130.327,856.57z"/>
				<g>
					
						<linearGradient id="SVGID_00000129191512339371815450000011059369029814526596_" gradientUnits="userSpaceOnUse" x1="1440.9232" y1="3748.4561" x2="1317.6168" y2="3911.5803" gradientTransform="matrix(-0.817 -0.5767 -0.5767 0.817 5419.5103 -1428.4956)">
						<stop  offset="0" style="stop-color:#FEBBBA"/>
						<stop  offset="1" style="stop-color:#FF928E"/>
					</linearGradient>
					<path style="fill:url(#SVGID_00000129191512339371815450000011059369029814526596_);" d="M2061.182,788.475
						c-0.938,1.328-29.613,104.92-29.613,104.92l59.497,15.116l41.765-94.145C2132.832,814.366,2076.877,766.24,2061.182,788.475z"
						/>
					
						<linearGradient id="SVGID_00000113325886544149957040000013626278230054533032_" gradientUnits="userSpaceOnUse" x1="1346.7524" y1="3787.8054" x2="1494.0442" y2="3787.8054" gradientTransform="matrix(-0.817 -0.5767 -0.5767 0.817 5419.5103 -1428.4956)">
						<stop  offset="0" style="stop-color:#09005D"/>
						<stop  offset="1" style="stop-color:#1A0F91"/>
					</linearGradient>
					<path style="fill:url(#SVGID_00000113325886544149957040000013626278230054533032_);" d="M2110.427,828.669l-18.105,51.282
						c-0.232,0.658-0.543,1.266-0.944,1.836c-2.457,3.491-11.79,14.881-22.862,4.621c-10.046-9.31-19.352-17.656-27.947-19.172
						c-3.859-0.681-7.597,1.675-8.642,5.451c-2.603,9.413-8.076,30.732-10.005,49.979c-0.391,3.906,2.305,7.436,6.162,8.168
						c11.621,2.207,36.259,6.176,56.828,4.725c2.788-0.197,5.24-1.869,6.403-4.409c5.668-12.387,23.037-49.969,29.496-59.693
						c6.063-9.127,20.927-8.871,27.16-8.318c2.043,0.181,4.053-0.477,5.596-1.83c5.453-4.78,15.832-16.984,1.232-31.593
						c-3.055-3.058-2.973-7.99,0.176-10.951c6.269-5.895,12.975-16.35,2.529-29.317c-10.617-13.18-24.633-11.082-33.219-7.948
						c-3.472,1.267-7.26-0.201-9.147-3.379c-1.075-1.809-2.949-3.178-6.199-2.898c-4.379,0.376-8.061-3.278-7.982-7.673
						c0.151-8.443-2.871-19.111-17.519-23.67c-25.991-8.09-42.199,17.02-43.804,35.756c-1.605,18.737,27.072,25.905,43.935,24.641
						c12.822-0.961,22.341,11.747,26.168,17.894C2110.949,824.119,2111.191,826.506,2110.427,828.669z"/>
					
						<linearGradient id="SVGID_00000109719483932251609290000018429943773549202567_" gradientUnits="userSpaceOnUse" x1="1260.3271" y1="3877.6377" x2="1359.2294" y2="3776.1665" gradientTransform="matrix(-0.817 -0.5767 -0.5767 0.817 5419.5103 -1428.4956)">
						<stop  offset="0" style="stop-color:#FEBBBA"/>
						<stop  offset="1" style="stop-color:#FF928E"/>
					</linearGradient>
					<path style="fill:url(#SVGID_00000109719483932251609290000018429943773549202567_);" d="M2114.034,890.064
						c0,0,4.198-32.527,17.729-34.121c13.531-1.594,26.701,9.527,13.249,27.784C2128.278,906.437,2114.034,890.064,2114.034,890.064
						z"/>
				</g>
				<g>
					
						<linearGradient id="SVGID_00000127741830537395501710000004529784694662019472_" gradientUnits="userSpaceOnUse" x1="2419.1143" y1="973.1371" x2="2811.511" y2="517.6772" gradientTransform="matrix(0.9999 0.011 -0.011 0.9999 -1100.3002 282.0813)">
						<stop  offset="0" style="stop-color:#E1473D"/>
						<stop  offset="1" style="stop-color:#E9605A"/>
					</linearGradient>
					
						<circle style="fill:url(#SVGID_00000127741830537395501710000004529784694662019472_);" cx="1713.262" cy="821.521" r="292.535"/>
					
						<linearGradient id="SVGID_00000091003936971228830970000016139608888274466469_" gradientUnits="userSpaceOnUse" x1="3033.2407" y1="185.4809" x2="1872.9132" y2="1938.4049" gradientTransform="matrix(0.9999 0.011 -0.011 0.9999 -1100.3002 282.0813)">
						<stop  offset="0" style="stop-color:#FE7062"/>
						<stop  offset="1" style="stop-color:#FF928E"/>
					</linearGradient>
					
						<circle style="fill:url(#SVGID_00000091003936971228830970000016139608888274466469_);" cx="1713.262" cy="821.521" r="282.808"/>
					
						<linearGradient id="SVGID_00000047046527083470688540000012374523987203883154_" gradientUnits="userSpaceOnUse" x1="1626.5773" y1="444.1517" x2="1635.4492" y2="53.8006">
						<stop  offset="0" style="stop-color:#FEBBBA"/>
						<stop  offset="1" style="stop-color:#FF928E"/>
					</linearGradient>
					<path style="fill:url(#SVGID_00000047046527083470688540000012374523987203883154_);" d="M1481.306,706.763
						c-0.799-0.009-1.609-0.198-2.368-0.593c-2.589-1.343-3.598-4.531-2.255-7.115c46.6-89.852,138.374-144.973,239.511-143.859
						c16.138,0.178,32.285,1.81,47.993,4.855c2.864,0.552,4.736,3.321,4.181,6.187c-0.555,2.861-3.303,4.749-6.187,4.176
						c-15.089-2.919-30.6-4.488-46.103-4.658c-97.128-1.07-185.266,51.87-230.023,138.158
						C1485.108,705.743,1483.237,706.785,1481.306,706.763z"/>
					
						<ellipse transform="matrix(0.7071 -0.7071 0.7071 0.7071 -81.721 1458.2106)" style="opacity:0.78;fill:#FFFFFF;" cx="1719.355" cy="827.751" rx="239.362" ry="239.362"/>
					<g>
						
							<linearGradient id="SVGID_00000040569553014785776320000008610802382570101654_" gradientUnits="userSpaceOnUse" x1="1864.3802" y1="-320.4378" x2="1275.9869" y2="667.3771" gradientTransform="matrix(0.9622 0.2724 -0.2724 0.9622 70.2339 420.1814)">
							<stop  offset="0" style="stop-color:#FE7062"/>
							<stop  offset="1" style="stop-color:#FF928E"/>
						</linearGradient>
						<path style="fill:url(#SVGID_00000040569553014785776320000008610802382570101654_);" d="M1693.908,1005.427l0.287-26.04
							c-27.134-1.386-53.913-8.088-72.891-16.646c-6.777-3.056-10.164-10.737-8.129-17.887l6.882-24.182
							c2.524-8.871,12.252-13.367,20.718-9.708c18.831,8.139,42.118,14.67,67.305,14.947c26.146,0.288,45.742-8.361,45.942-26.532
							c0.181-16.395-14.779-26.31-51.01-36.458c-51.692-14.752-88.669-37.763-88.167-83.409
							c0.454-41.215,30.937-72.346,83.32-80.189l0.287-26.043c0.092-8.379,6.96-15.097,15.34-15.005l15.299,0.169
							c8.38,0.092,15.097,6.96,15.005,15.339l-0.257,23.382c25.108,1.282,43.345,5.779,57.799,11.038
							c7.406,2.694,11.38,10.747,9.234,18.33l-6.331,22.365c-2.441,8.625-11.738,13.261-20.087,9.999
							c-13.304-5.199-32.134-10.668-56.686-10.938c-31.022-0.342-40.025,12.411-40.151,23.934
							c-0.156,14.181,18.349,24.134,58.538,36.988c57.42,17.917,81.086,42.11,80.612,85.097
							c-0.434,39.44-30.071,74.571-86.893,82.811l-0.321,29.141c-0.092,8.38-6.96,15.098-15.34,15.006l-15.301-0.169
							C1700.534,1020.674,1693.816,1013.806,1693.908,1005.427z"/>
					</g>
				</g>
				
					<linearGradient id="SVGID_00000009581679471972462240000003911321382646360763_" gradientUnits="userSpaceOnUse" x1="1837.3107" y1="1132.3859" x2="1837.3107" y2="1736.1786">
					<stop  offset="0" style="stop-color:#FEBBBA"/>
					<stop  offset="1" style="stop-color:#FF928E"/>
				</linearGradient>
				<path style="fill:url(#SVGID_00000009581679471972462240000003911321382646360763_);" d="M1774.25,1126.521l13.771-18.361
					c44.581,30.617,81.845,37.875,112.351,32.648c-2.726,26.941-8.409,53.832-17.094,80.672
					C1815.233,1196.934,1774.25,1126.521,1774.25,1126.521z"/>
				
					<linearGradient id="SVGID_00000060714359794794620890000015760214993935787149_" gradientUnits="userSpaceOnUse" x1="1713.2617" y1="1132.386" x2="1713.2617" y2="1736.1787">
					<stop  offset="0" style="stop-color:#FEBBBA"/>
					<stop  offset="1" style="stop-color:#FF928E"/>
				</linearGradient>
				<path style="fill:url(#SVGID_00000060714359794794620890000015760214993935787149_);" d="M1783.959,1126.853l-77.58,3.025
					l-71.429-39.894c10.253-6.427,68.234,6.71,68.234,6.71s60.611-9.167,77.016-9.188c13.625-0.018,11.678,19.575,10.628,26.215
					c-0.214,1.354-0.391,2.17-0.391,2.17L1783.959,1126.853z"/>
			</g>
		</g>
	</g>
</g>
</svg>
